<svg width="30" height="30" viewBox="0 0 30 30" fill="none" xmlns="http://www.w3.org/2000/svg">
<rect width="30" height="30" rx="4" fill="#F0F2F5"/>
<path d="M19.4018 18.4735C19.5251 18.5968 19.5943 18.764 19.5943 18.9383C19.5943 19.1127 19.5251 19.2799 19.4018 19.4032C19.2785 19.5265 19.1113 19.5957 18.9369 19.5957C18.7626 19.5957 18.5954 19.5265 18.4721 19.4032L15 15.93L11.5268 19.4021C11.4035 19.5254 11.2363 19.5946 11.0619 19.5946C10.8876 19.5946 10.7204 19.5254 10.5971 19.4021C10.4738 19.2788 10.4045 19.1116 10.4045 18.9372C10.4045 18.7629 10.4738 18.5957 10.5971 18.4724L14.0703 15.0003L10.5982 11.5271C10.4749 11.4038 10.4056 11.2366 10.4056 11.0622C10.4056 10.8879 10.4749 10.7207 10.5982 10.5974C10.7215 10.4741 10.8887 10.4048 11.063 10.4048C11.2374 10.4048 11.4046 10.4741 11.5279 10.5974L15 14.0706L18.4732 10.5968C18.5965 10.4736 18.7637 10.4043 18.938 10.4043C19.1124 10.4043 19.2796 10.4736 19.4029 10.5968C19.5262 10.7201 19.5954 10.8873 19.5954 11.0617C19.5954 11.236 19.5262 11.4032 19.4029 11.5265L15.9297 15.0003L19.4018 18.4735Z" fill="#343330"/>
</svg>
